<mxfile host="app.diagrams.net" agent="Mozilla/5.0 (X11; CrOS x86_64 14541.0.0) AppleWebKit/537.36 (KHTML, like Gecko) Chrome/115.0.0.0 Safari/537.36" version="26.0.16">
  <diagram name="Page-1" id="jqMp7bm24KUuJ60f3i7n">
    <mxGraphModel dx="1956" dy="1047" grid="1" gridSize="10" guides="1" tooltips="1" connect="1" arrows="1" fold="1" page="1" pageScale="1" pageWidth="850" pageHeight="1100" math="0" shadow="0">
      <root>
        <mxCell id="0" />
        <mxCell id="1" parent="0" />
        <mxCell id="D9JkcMebMxc72kRFSWBC-1" value="&quot;Welcome to Guessing Number&quot;" style="rounded=1;whiteSpace=wrap;html=1;" vertex="1" parent="1">
          <mxGeometry x="365" y="10" width="120" height="60" as="geometry" />
        </mxCell>
        <mxCell id="D9JkcMebMxc72kRFSWBC-5" value="" style="edgeStyle=orthogonalEdgeStyle;rounded=0;orthogonalLoop=1;jettySize=auto;html=1;" edge="1" parent="1" source="D9JkcMebMxc72kRFSWBC-3" target="D9JkcMebMxc72kRFSWBC-1">
          <mxGeometry relative="1" as="geometry" />
        </mxCell>
        <mxCell id="D9JkcMebMxc72kRFSWBC-16" value="" style="edgeStyle=orthogonalEdgeStyle;rounded=0;orthogonalLoop=1;jettySize=auto;html=1;" edge="1" parent="1" source="D9JkcMebMxc72kRFSWBC-3" target="D9JkcMebMxc72kRFSWBC-15">
          <mxGeometry relative="1" as="geometry" />
        </mxCell>
        <mxCell id="D9JkcMebMxc72kRFSWBC-3" value="Press Enter to Start" style="shape=parallelogram;perimeter=parallelogramPerimeter;whiteSpace=wrap;html=1;fixedSize=1;" vertex="1" parent="1">
          <mxGeometry x="348" y="100" width="155" height="60" as="geometry" />
        </mxCell>
        <mxCell id="D9JkcMebMxc72kRFSWBC-6" value="Enter a number from 1-100" style="shape=display;whiteSpace=wrap;html=1;" vertex="1" parent="1">
          <mxGeometry x="355" y="260" width="140" height="80" as="geometry" />
        </mxCell>
        <mxCell id="D9JkcMebMxc72kRFSWBC-9" value="" style="edgeStyle=orthogonalEdgeStyle;rounded=0;orthogonalLoop=1;jettySize=auto;html=1;" edge="1" parent="1" source="D9JkcMebMxc72kRFSWBC-8" target="D9JkcMebMxc72kRFSWBC-6">
          <mxGeometry relative="1" as="geometry" />
        </mxCell>
        <mxCell id="D9JkcMebMxc72kRFSWBC-8" value="User has to narrow the number down&amp;nbsp;" style="strokeWidth=2;html=1;shape=mxgraph.flowchart.decision;whiteSpace=wrap;" vertex="1" parent="1">
          <mxGeometry x="343.5" y="370" width="164.5" height="180" as="geometry" />
        </mxCell>
        <mxCell id="D9JkcMebMxc72kRFSWBC-11" value="" style="edgeStyle=orthogonalEdgeStyle;rounded=0;orthogonalLoop=1;jettySize=auto;html=1;" edge="1" parent="1" source="D9JkcMebMxc72kRFSWBC-10" target="D9JkcMebMxc72kRFSWBC-8">
          <mxGeometry relative="1" as="geometry" />
        </mxCell>
        <mxCell id="D9JkcMebMxc72kRFSWBC-10" value="The user is guided through his/her&#39;s number being to high or too low" style="rounded=0;whiteSpace=wrap;html=1;" vertex="1" parent="1">
          <mxGeometry x="343" y="580" width="165" height="80" as="geometry" />
        </mxCell>
        <mxCell id="D9JkcMebMxc72kRFSWBC-13" value="" style="edgeStyle=orthogonalEdgeStyle;rounded=0;orthogonalLoop=1;jettySize=auto;html=1;" edge="1" parent="1" source="D9JkcMebMxc72kRFSWBC-12" target="D9JkcMebMxc72kRFSWBC-10">
          <mxGeometry relative="1" as="geometry" />
        </mxCell>
        <mxCell id="D9JkcMebMxc72kRFSWBC-24" value="" style="edgeStyle=orthogonalEdgeStyle;rounded=0;orthogonalLoop=1;jettySize=auto;html=1;" edge="1" parent="1" source="D9JkcMebMxc72kRFSWBC-12" target="D9JkcMebMxc72kRFSWBC-23">
          <mxGeometry relative="1" as="geometry" />
        </mxCell>
        <mxCell id="D9JkcMebMxc72kRFSWBC-12" value="once user gets the number guessed correctly guessed the user is shown their name and the score that they got&amp;nbsp;" style="rounded=0;whiteSpace=wrap;html=1;" vertex="1" parent="1">
          <mxGeometry x="333" y="680" width="184.5" height="110" as="geometry" />
        </mxCell>
        <mxCell id="D9JkcMebMxc72kRFSWBC-17" value="" style="edgeStyle=orthogonalEdgeStyle;rounded=0;orthogonalLoop=1;jettySize=auto;html=1;" edge="1" parent="1" source="D9JkcMebMxc72kRFSWBC-15" target="D9JkcMebMxc72kRFSWBC-6">
          <mxGeometry relative="1" as="geometry" />
        </mxCell>
        <mxCell id="D9JkcMebMxc72kRFSWBC-19" value="" style="edgeStyle=orthogonalEdgeStyle;rounded=0;orthogonalLoop=1;jettySize=auto;html=1;" edge="1" parent="1" source="D9JkcMebMxc72kRFSWBC-15" target="D9JkcMebMxc72kRFSWBC-18">
          <mxGeometry relative="1" as="geometry" />
        </mxCell>
        <mxCell id="D9JkcMebMxc72kRFSWBC-15" value="User is asked to enter their name" style="rounded=0;whiteSpace=wrap;html=1;" vertex="1" parent="1">
          <mxGeometry x="365" y="180" width="120" height="60" as="geometry" />
        </mxCell>
        <mxCell id="D9JkcMebMxc72kRFSWBC-21" value="" style="edgeStyle=orthogonalEdgeStyle;rounded=0;orthogonalLoop=1;jettySize=auto;html=1;" edge="1" parent="1" source="D9JkcMebMxc72kRFSWBC-18" target="D9JkcMebMxc72kRFSWBC-20">
          <mxGeometry relative="1" as="geometry" />
        </mxCell>
        <mxCell id="D9JkcMebMxc72kRFSWBC-18" value="users name will be put into a file and memorized and will combined with their score" style="whiteSpace=wrap;html=1;rounded=0;" vertex="1" parent="1">
          <mxGeometry x="590" y="170" width="135" height="80" as="geometry" />
        </mxCell>
        <mxCell id="D9JkcMebMxc72kRFSWBC-22" value="" style="edgeStyle=orthogonalEdgeStyle;rounded=0;orthogonalLoop=1;jettySize=auto;html=1;" edge="1" parent="1" source="D9JkcMebMxc72kRFSWBC-20" target="D9JkcMebMxc72kRFSWBC-12">
          <mxGeometry relative="1" as="geometry" />
        </mxCell>
        <mxCell id="D9JkcMebMxc72kRFSWBC-20" value="users name is reconized in the file and pasted onto display along with the score that they get" style="whiteSpace=wrap;html=1;rounded=0;" vertex="1" parent="1">
          <mxGeometry x="590" y="682.5" width="135" height="105" as="geometry" />
        </mxCell>
        <mxCell id="D9JkcMebMxc72kRFSWBC-26" value="" style="edgeStyle=orthogonalEdgeStyle;rounded=0;orthogonalLoop=1;jettySize=auto;html=1;entryX=0;entryY=0.5;entryDx=0;entryDy=0;entryPerimeter=0;" edge="1" parent="1" source="D9JkcMebMxc72kRFSWBC-23" target="D9JkcMebMxc72kRFSWBC-6">
          <mxGeometry relative="1" as="geometry">
            <mxPoint x="160" y="300" as="targetPoint" />
            <Array as="points">
              <mxPoint x="161" y="883" />
              <mxPoint x="161" y="300" />
            </Array>
          </mxGeometry>
        </mxCell>
        <mxCell id="D9JkcMebMxc72kRFSWBC-30" value="" style="edgeStyle=orthogonalEdgeStyle;rounded=0;orthogonalLoop=1;jettySize=auto;html=1;" edge="1" parent="1" source="D9JkcMebMxc72kRFSWBC-23" target="D9JkcMebMxc72kRFSWBC-29">
          <mxGeometry relative="1" as="geometry" />
        </mxCell>
        <mxCell id="D9JkcMebMxc72kRFSWBC-23" value="User is asked if they want to play again" style="rhombus;whiteSpace=wrap;html=1;rounded=0;" vertex="1" parent="1">
          <mxGeometry x="309" y="810" width="232" height="145" as="geometry" />
        </mxCell>
        <mxCell id="D9JkcMebMxc72kRFSWBC-28" value="YES" style="text;html=1;align=center;verticalAlign=middle;whiteSpace=wrap;rounded=0;" vertex="1" parent="1">
          <mxGeometry x="80" y="520" width="100" height="70" as="geometry" />
        </mxCell>
        <mxCell id="D9JkcMebMxc72kRFSWBC-29" value="code ends" style="whiteSpace=wrap;html=1;rounded=0;" vertex="1" parent="1">
          <mxGeometry x="365.5" y="1000" width="120" height="60" as="geometry" />
        </mxCell>
        <mxCell id="D9JkcMebMxc72kRFSWBC-31" value="NO" style="text;html=1;align=center;verticalAlign=middle;whiteSpace=wrap;rounded=0;" vertex="1" parent="1">
          <mxGeometry x="355" y="955" width="60" height="30" as="geometry" />
        </mxCell>
      </root>
    </mxGraphModel>
  </diagram>
</mxfile>
